# This file uses centimeters as units for non-parametric coordinates.

mtllib house-guideline.mtl
g default
v -5.588226 0.000000 2.313436
v 5.588226 0.000000 2.313436
v -5.588226 4.977071 2.313436
v 5.588226 4.977071 2.313436
v -5.588226 4.977071 -2.313436
v 5.588226 4.977071 -2.313436
v -5.588226 0.000000 -2.313436
v 5.588226 0.000000 -2.313436
v -5.588226 8.312499 0.011492
v 5.588226 8.312499 0.011492
v 5.588226 8.312499 -0.011492
v -5.588226 8.312499 -0.011492
vt 0.375000 0.000000
vt 0.625000 0.000000
vt 0.375000 0.250000
vt 0.625000 0.250000
vt 0.375000 0.500000
vt 0.625000 0.500000
vt 0.375000 0.750000
vt 0.625000 0.750000
vt 0.375000 1.000000
vt 0.625000 1.000000
vt 0.875000 0.000000
vt 0.875000 0.250000
vt 0.125000 0.000000
vt 0.125000 0.250000
vt 0.375000 0.250000
vt 0.625000 0.250000
vt 0.625000 0.500000
vt 0.375000 0.500000
vn 0.000000 0.000000 1.000000
vn 0.000000 0.000000 1.000000
vn 0.000000 0.266881 0.963730
vn 0.000000 0.266881 0.963730
vn 0.000000 1.000000 0.000000
vn 0.000000 1.000000 0.000000
vn 0.000000 1.000000 0.000000
vn 0.000000 1.000000 0.000000
vn 0.000000 0.266881 -0.963730
vn 0.000000 0.266881 -0.963730
vn 0.000000 0.000000 -1.000000
vn 0.000000 0.000000 -1.000000
vn 0.000000 -1.000000 0.000000
vn 0.000000 -1.000000 0.000000
vn 0.000000 -1.000000 0.000000
vn 0.000000 -1.000000 0.000000
vn 1.000000 0.000000 0.000000
vn 1.000000 0.000000 0.000000
vn 1.000000 0.000000 0.000000
vn 1.000000 0.000000 0.000000
vn -1.000000 0.000000 0.000000
vn -1.000000 0.000000 0.000000
vn -1.000000 0.000000 0.000000
vn -1.000000 0.000000 0.000000
vn 0.000000 0.568009 0.823023
vn 0.000000 0.568009 0.823023
vn 1.000000 0.000000 0.000000
vn 1.000000 0.000000 0.000000
vn 0.000000 0.568009 -0.823023
vn 0.000000 0.568009 -0.823023
vn -1.000000 0.000000 0.000000
vn -1.000000 0.000000 0.000000
s 1
g pCube1
usemtl initialShadingGroup
f 1/1/1 2/2/2 4/4/3 3/3/4
s off
f 9/15/5 10/16/6 11/17/7 12/18/8
s 2
f 5/5/9 6/6/10 8/8/11 7/7/12
s off
f 7/7/13 8/8/14 2/10/15 1/9/16
s 3
f 2/2/17 8/11/18 6/12/19 4/4/20
s 4
f 7/13/21 1/1/22 3/3/23 5/14/24
s 1
f 3/3/4 4/4/3 10/16/25 9/15/26
s 3
f 4/4/20 6/6/19 11/17/27 10/16/28
s 2
f 6/6/10 5/5/9 12/18/29 11/17/30
s 4
f 5/5/24 3/3/23 9/15/31 12/18/32
g default
v 1.892796 0.000000 4.235240
v 1.892796 0.000000 -6.999999
v 1.892796 6.741237 4.235240
v 1.892796 6.741237 -6.999999
v -1.892796 6.741237 4.235240
v -1.892796 6.741237 -6.999999
v -1.892796 0.000000 4.235240
v -1.892796 0.000000 -6.999999
v 0.010347 11.258934 4.235240
v 0.010347 11.258934 -6.999999
v -0.010347 11.258934 -6.999999
v -0.010347 11.258934 4.235240
vt 0.375000 0.000000
vt 0.625000 0.000000
vt 0.375000 0.250000
vt 0.625000 0.250000
vt 0.375000 0.500000
vt 0.625000 0.500000
vt 0.375000 0.750000
vt 0.625000 0.750000
vt 0.375000 1.000000
vt 0.625000 1.000000
vt 0.875000 0.000000
vt 0.875000 0.250000
vt 0.125000 0.000000
vt 0.125000 0.250000
vt 0.375000 0.250000
vt 0.625000 0.250000
vt 0.625000 0.500000
vt 0.375000 0.500000
vn 1.000000 0.000000 0.000000
vn 1.000000 0.000000 0.000000
vn 0.986309 0.164907 0.000000
vn 0.986309 0.164907 0.000000
vn 0.000000 1.000000 0.000000
vn 0.000000 1.000000 0.000000
vn 0.000000 1.000000 0.000000
vn 0.000000 1.000000 0.000000
vn -0.986309 0.164907 -0.000000
vn -0.986309 0.164907 -0.000000
vn -1.000000 0.000000 -0.000000
vn -1.000000 0.000000 -0.000000
vn 0.000000 -1.000000 0.000000
vn 0.000000 -1.000000 0.000000
vn 0.000000 -1.000000 0.000000
vn 0.000000 -1.000000 0.000000
vn 0.000000 0.000000 -1.000000
vn 0.000000 0.000000 -1.000000
vn 0.000000 0.000000 -1.000000
vn 0.000000 0.000000 -1.000000
vn 0.000000 0.000000 1.000000
vn 0.000000 0.000000 1.000000
vn 0.000000 0.000000 1.000000
vn 0.000000 0.000000 1.000000
vn 0.923072 0.384628 0.000000
vn 0.923072 0.384628 0.000000
vn 0.000000 0.000000 -1.000000
vn 0.000000 0.000000 -1.000000
vn -0.923072 0.384628 -0.000000
vn -0.923072 0.384628 -0.000000
vn 0.000000 0.000000 1.000000
vn 0.000000 0.000000 1.000000
s 1
g pasted__pCube1 group1
usemtl initialShadingGroup
f 13/19/33 14/20/34 16/22/35 15/21/36
s off
f 21/33/37 22/34/38 23/35/39 24/36/40
s 2
f 17/23/41 18/24/42 20/26/43 19/25/44
s off
f 19/25/45 20/26/46 14/28/47 13/27/48
s 3
f 14/20/49 20/29/50 18/30/51 16/22/52
s 4
f 19/31/53 13/19/54 15/21/55 17/32/56
s 1
f 15/21/36 16/22/35 22/34/57 21/33/58
s 3
f 16/22/52 18/24/51 23/35/59 22/34/60
s 2
f 18/24/42 17/23/41 24/36/61 23/35/62
s 4
f 17/23/56 15/21/55 21/33/63 24/36/64
